<svg width="327" height="303" viewBox="0 0 327 303" fill="none" xmlns="http://www.w3.org/2000/svg">
<path d="M5 298C25.2236 277.776 51.4133 265.557 79.9444 264.056C104.623 262.757 130.844 262.888 155.222 267.222C167.637 269.429 178.683 274.39 188.944 281.444C193.763 284.757 197.963 292.482 203 295" stroke="black" stroke-width="10" stroke-linecap="round"/>
<path d="M97 260C97 243.804 98 227.331 98 211C98 191.452 95.8356 171.613 98.2222 152.222C99.8959 138.623 99 124.581 99 110.889C99 90.9499 100.83 71.1281 101 51.2222C101.124 36.7632 102 22.4557 102 8" stroke="black" stroke-width="10" stroke-linecap="round"/>
<path d="M102 7C104.978 9.38275 115.623 8.94376 119.222 9C132.549 9.20823 145.894 9 159.222 9C174.745 9 191.537 8.91678 207 7.22222C215.596 6.28016 224.563 7 233.222 7C240.904 7 248.501 6 256.222 6C268.218 6 279.988 5 292 5" stroke="black" stroke-width="10" stroke-linecap="round"/>
<path d="M155 16C150.538 16.4957 145.342 25.3956 141.778 28C135.999 32.2229 130.179 35.8211 125.056 40.9444C119.944 46.0559 113.376 53.8121 107 57" stroke="black" stroke-width="10" stroke-linecap="round"/>
<path d="M289 10V54" stroke="black" stroke-width="10" stroke-linecap="round"/>
<path d="M288 58C275.752 58 264.077 71.5006 260.778 82.2222C258.805 88.6349 260.862 99.8622 265.778 104.778C271.003 110.003 278.061 107.228 284.222 107C290.583 106.764 300.363 104.637 305 100C309.933 95.0666 310.182 86.549 310 80C309.633 66.788 298.691 62 287 62" stroke="black" stroke-width="10" stroke-linecap="round"/>
<path d="M284 113C284 137.558 281 161.553 281 186" stroke="black" stroke-width="10" stroke-linecap="round"/>
<path d="M279 141C269.59 142.046 259.92 157.29 254 164.056C249.663 169.012 234.109 180.946 240 178" stroke="black" stroke-width="10" stroke-linecap="round"/>
<path d="M282 146C285.354 146.373 289.197 150.698 292 152.5C296.884 155.64 301.938 158.774 306.778 162C311.599 165.214 315.428 170.143 321 172" stroke="black" stroke-width="10" stroke-linecap="round"/>
<path d="M279 193C279 195.953 276.286 200.671 274.778 203.222C271.4 208.938 267.634 215.082 265.222 221.222C262.737 227.547 259.154 233.539 257 240" stroke="black" stroke-width="10" stroke-linecap="round"/>
<path d="M283 193C283.468 197.216 288.509 201.337 289 206C289.325 209.086 291.029 215.681 293 218C294.837 220.161 299.641 227.127 300 230C300.248 231.987 301.077 235.154 302 237" stroke="black" stroke-width="10" stroke-linecap="round"/>
</svg>
